<svg xmlns="http://www.w3.org/2000/svg" viewBox="0 0 1231.0 215.0" width="1231.0" height="215.0" role="img" aria-label="SectorCalc"><g><rect x="0" y="0" width="100" height="100" fill="#1A1915"/><rect x="115" y="0" width="100" height="100" fill="#BD5D3A"/><rect x="0" y="115" width="100" height="100" fill="#1A1915" fill-opacity="0.3"/><rect x="115" y="115" width="100" height="100" fill="#BD5D3A" fill-opacity="0.3"/></g><g transform="translate(277.00 182.50) scale(0.65722 -0.65722)"><path d="M91.69 -4.41 Q74.86 -4.41 65.86 -0.14 Q56.86 4.12 51.84 6.61 Q47.77 8.81 45.09 10.41 Q42.47 12.00 39.98 12.00 Q38.95 12.00 37.78 11.48 Q36.61 10.97 35.44 9.52 Q32.81 6.28 30.00 4.88 Q27.23 3.52 25.03 3.52 Q22.27 3.52 20.58 5.48 Q18.89 7.45 19.03 10.55 Q19.36 13.50 19.36 16.55 Q19.36 19.64 19.36 22.69 Q19.36 37.22 17.72 49.50 Q16.12 61.83 16.12 68.72 Q16.12 72.52 18.38 74.34 Q20.67 76.17 23.30 76.17 Q29.58 76.17 31.08 70.03 Q31.92 66.38 34.03 59.53 Q36.19 52.73 42.05 40.12 Q47.30 29.02 55.41 22.03 Q63.56 15.09 72.52 11.86 Q81.47 8.62 89.20 8.62 Q98.16 8.62 106.50 11.39 Q114.84 14.20 120.33 21.80 Q125.81 29.44 125.81 43.78 Q125.81 54.66 119.16 63.19 Q112.50 71.77 101.86 78.80 Q91.27 85.83 79.55 91.69 Q69.42 96.84 59.53 102.75 Q49.64 108.70 41.53 116.25 Q33.42 123.80 28.41 133.69 Q23.44 143.58 23.16 156.61 Q22.69 171.70 28.27 182.30 Q33.84 192.94 42.89 199.50 Q51.98 206.11 62.81 209.16 Q73.69 212.25 83.81 212.25 Q95.53 212.25 103.36 210.42 Q111.19 208.59 115.92 206.67 Q120.70 204.80 122.62 204.80 Q126.14 204.80 127.50 206.11 Q128.91 207.42 130.97 208.73 Q132.56 209.77 134.91 209.77 Q137.86 209.77 140.39 208.08 Q142.97 206.39 142.97 204.19 Q142.97 195.28 143.91 186.98 Q144.89 178.73 145.83 171.52 Q146.77 164.34 146.77 158.81 Q146.77 154.27 144.42 152.44 Q142.08 150.61 139.17 150.61 Q136.97 150.61 135.00 151.59 Q133.03 152.62 132.70 153.94 Q131.11 163.50 127.88 170.95 Q124.64 178.41 120.19 183.98 Q115.73 189.56 110.30 193.27 Q104.91 197.02 98.81 198.84 Q92.72 200.67 86.30 200.67 Q76.17 200.67 68.25 197.30 Q60.38 193.97 55.88 186.23 Q51.42 178.55 51.42 165.38 Q51.42 156.00 58.22 148.03 Q65.06 140.06 75.66 133.03 Q86.30 126.00 97.55 119.39 Q107.06 113.81 117.23 107.58 Q127.45 101.39 136.22 93.66 Q145.03 85.97 150.52 76.31 Q156.00 66.66 156.00 54.33 Q156.00 35.30 147.33 22.17 Q138.70 9.09 124.12 2.34 Q109.59 -4.41 91.69 -4.41 Z M246.26 -4.27 Q212.70 -4.27 195.54 16.17 Q178.44 36.61 178.44 73.27 Q178.44 97.69 187.62 114.47 Q196.86 131.25 211.95 139.88 Q227.04 148.55 244.48 148.55 Q262.95 148.55 274.58 142.17 Q286.25 135.80 292.62 124.45 Q299.00 113.11 301.62 98.02 Q302.65 92.44 302.98 86.25 Q303.36 80.11 303.36 73.69 L209.94 73.69 Q210.08 50.53 216.08 36.75 Q222.08 23.02 231.22 16.97 Q240.40 10.97 250.06 10.97 Q261.17 10.97 270.40 16.03 Q279.64 21.09 284.33 30.47 Q284.75 31.36 285.17 32.20 Q285.64 33.09 287.09 32.81 L294.45 29.44 Q296.04 28.88 296.04 27.70 Q296.04 27.09 295.76 26.44 Q295.48 25.78 295.15 25.36 Q288.73 12.47 276.87 4.08 Q265.01 -4.27 246.26 -4.27 Z M210.22 86.30 L270.87 87.14 Q270.87 112.64 263.23 123.56 Q255.64 134.48 244.34 134.48 Q233.94 134.48 226.62 131.11 Q219.31 127.73 215.19 117.38 Q211.11 107.06 210.22 86.30 Z M388.33 -4.27 Q356.27 -4.27 339.86 16.69 Q323.46 37.64 323.46 73.27 Q323.46 96.98 332.60 113.81 Q341.74 130.69 357.39 139.59 Q373.10 148.55 392.60 148.55 Q405.16 148.55 416.97 144.89 Q428.78 141.23 435.49 129.94 Q438.86 124.36 440.31 119.53 Q441.81 114.70 441.81 110.91 Q441.81 106.50 440.27 103.41 Q438.72 100.36 436.38 98.67 Q434.03 96.98 431.41 96.98 Q427.14 96.98 424.33 98.06 Q421.56 99.19 419.41 104.02 L407.08 131.39 Q407.08 131.39 404.08 132.94 Q401.08 134.48 394.80 134.48 Q377.03 134.48 365.97 120.42 Q354.96 106.36 354.96 71.77 Q354.96 48.94 361.47 35.67 Q367.99 22.41 377.13 16.69 Q386.27 10.97 393.91 10.97 Q405.02 10.97 414.25 16.03 Q423.49 21.09 428.17 30.47 Q428.60 31.36 429.11 32.44 Q429.63 33.56 430.94 32.81 L438.30 29.44 Q439.89 28.73 439.89 27.56 Q439.89 26.95 439.61 26.34 Q439.33 25.78 439.00 25.36 Q432.58 12.47 419.83 4.08 Q407.08 -4.27 388.33 -4.27 Z M511.67 -4.41 Q498.50 -4.41 490.29 -0.52 Q482.09 3.38 478.20 11.58 Q474.31 19.78 474.31 32.67 L474.31 132.84 L457.48 132.84 Q455.70 133.03 454.81 134.53 Q453.97 136.08 453.97 137.86 Q453.97 144.14 458.04 144.14 Q467.42 145.17 473.42 149.20 Q479.47 153.23 483.54 162.00 Q487.67 170.81 491.00 185.77 Q491.47 187.92 493.06 188.48 Q494.70 189.09 497.33 189.09 Q500.23 189.09 500.89 188.34 Q501.54 187.64 501.54 185.58 L501.54 145.59 L544.76 145.59 Q546.54 145.45 547.39 143.91 Q548.28 142.41 548.28 140.62 Q548.28 137.53 547.01 135.19 Q545.79 132.84 544.20 132.84 L501.54 132.84 L501.54 43.36 Q501.54 30.89 504.03 24.38 Q506.56 17.86 510.36 15.42 Q514.15 13.03 517.81 13.03 Q527.94 13.03 533.84 15.00 Q539.79 17.02 545.23 20.67 Q546.69 21.70 548.23 19.64 Q549.78 17.58 550.62 14.95 Q551.51 12.33 550.48 11.44 Q547.44 8.81 541.25 5.06 Q535.11 1.31 527.33 -1.55 Q519.59 -4.41 511.67 -4.41 Z M564.42 72.09 Q564.42 93.19 572.81 110.53 Q581.25 127.88 597.00 138.19 Q612.75 148.55 634.73 148.55 Q656.67 148.55 672.05 138.19 Q687.47 127.88 695.48 110.53 Q703.55 93.19 703.55 72.09 Q703.55 51.00 695.25 33.70 Q687.00 16.41 671.34 6.05 Q655.69 -4.27 633.70 -4.27 Q611.72 -4.27 596.25 6.05 Q580.83 16.41 572.62 33.70 Q564.42 51.00 564.42 72.09 Z M595.92 72.09 Q595.92 42.61 603.94 26.11 Q612.00 9.66 634.12 9.66 Q656.25 9.66 663.98 26.11 Q671.77 42.61 671.77 72.09 Q671.77 101.53 663.70 117.98 Q655.69 134.48 633.56 134.48 Q611.44 134.48 603.66 117.94 Q595.92 101.39 595.92 72.09 Z M732.28 0.00 Q729.80 0.00 728.53 2.20 Q727.31 4.41 727.31 6.00 Q727.31 10.83 732.14 11.44 Q738.14 12.00 743.62 13.97 Q749.11 15.98 749.11 20.81 L749.11 113.95 Q749.11 123.05 745.31 126.42 Q741.52 129.80 736.36 130.50 Q731.25 131.25 727.31 132.28 Q725.81 133.03 724.78 134.20 Q723.80 135.38 723.80 138.14 Q723.80 139.88 724.73 142.08 Q725.67 144.28 727.31 144.42 Q741.94 145.31 753.05 146.02 Q764.20 146.77 770.53 146.91 Q771.70 146.91 773.16 145.73 Q774.61 144.56 774.89 141.05 L774.89 119.81 Q779.44 126.98 784.78 133.50 Q790.12 140.06 796.88 144.28 Q803.62 148.55 812.39 148.55 Q821.77 148.55 826.45 145.45 Q831.14 142.41 832.73 137.72 Q834.38 133.03 834.38 127.88 Q834.38 122.30 830.91 118.69 Q827.48 115.12 823.03 113.34 Q818.58 111.61 815.62 111.61 L801.70 129.19 Q797.30 129.19 792.38 125.81 Q787.50 122.48 783.23 116.91 Q779.02 111.33 776.39 104.91 L776.39 25.64 Q776.39 19.36 780.56 16.50 Q784.73 13.64 790.64 12.75 Q796.59 11.86 801.56 11.44 Q804.66 11.16 805.73 10.27 Q806.86 9.38 806.86 6.00 Q806.86 4.41 805.59 2.20 Q804.33 0.00 801.84 0.00 L732.28 0.00 Z" fill="#1A1915"/><path d="M958.03 -4.41 Q940.45 -4.41 922.64 0.94 Q904.88 6.28 890.06 18.56 Q875.25 30.89 866.30 51.70 Q857.39 72.52 857.39 103.41 Q857.39 132.42 866.53 153.14 Q875.72 173.86 890.34 186.89 Q905.02 199.97 922.08 206.11 Q939.14 212.25 954.94 212.25 Q974.44 212.25 987.38 209.95 Q1000.36 207.70 1008.61 204.70 Q1016.91 201.70 1022.06 199.36 L1025.25 153.52 Q1025.58 151.03 1022.91 149.34 Q1020.28 147.66 1018.55 147.66 Q1018.08 147.66 1017.70 147.56 Q1017.38 147.52 1016.91 147.52 Q1015.03 147.52 1013.53 148.45 Q1012.08 149.44 1011.80 151.78 Q1008.42 164.06 1001.44 174.66 Q994.50 185.30 983.06 191.72 Q971.67 198.19 954.66 198.19 Q945.28 198.19 934.88 195.19 Q924.47 192.19 915.47 182.81 Q906.47 173.44 900.75 154.45 Q895.03 135.52 895.03 103.41 Q895.03 72.94 901.41 54.33 Q907.78 35.77 917.67 26.02 Q927.56 16.27 938.30 12.89 Q949.08 9.52 957.89 9.52 Q974.58 9.52 985.36 15.89 Q996.14 22.27 1002.28 32.86 Q1008.42 43.50 1010.77 56.11 Q1011.38 59.02 1012.59 59.95 Q1013.86 60.94 1016.20 60.94 Q1017.94 60.94 1021.50 59.67 Q1025.11 58.45 1025.11 55.97 L1020.42 15.84 Q1020.28 13.78 1012.22 8.86 Q1004.16 3.94 990.19 -0.23 Q976.22 -4.41 958.03 -4.41 Z M1054.71 35.58 Q1054.71 50.11 1062.39 59.53 Q1070.08 69.00 1082.69 74.62 Q1095.30 80.30 1110.39 83.30 Q1125.49 86.30 1140.11 87.75 L1140.11 110.30 Q1140.11 115.73 1137.39 121.50 Q1134.67 127.31 1128.16 131.34 Q1121.64 135.38 1109.92 135.38 Q1103.64 135.38 1100.55 134.53 Q1097.50 133.73 1095.58 132.84 L1078.00 97.41 Q1069.80 97.41 1063.14 101.16 Q1056.49 104.91 1056.49 114.42 Q1056.49 120.98 1060.66 127.08 Q1064.83 133.17 1072.66 138.00 Q1080.49 142.83 1091.55 145.69 Q1102.61 148.55 1116.39 148.55 Q1132.94 148.55 1143.11 144.42 Q1153.28 140.34 1158.63 133.45 Q1163.97 126.56 1165.89 118.12 Q1167.81 109.73 1167.81 100.92 L1167.81 29.44 Q1167.81 23.72 1169.41 18.75 Q1171.00 13.78 1173.35 13.78 Q1175.41 13.78 1176.96 13.97 Q1178.50 14.20 1181.13 14.95 Q1183.61 15.66 1185.30 13.22 Q1186.99 10.83 1186.99 8.62 Q1186.99 7.03 1186.10 6.28 Q1182.30 3.52 1174.66 0.38 Q1167.06 -2.77 1157.97 -2.77 Q1150.38 -2.77 1146.53 0.42 Q1142.74 3.66 1142.74 14.48 L1142.74 17.44 Q1133.22 7.45 1122.16 2.16 Q1111.10 -3.09 1095.72 -3.09 Q1086.96 -3.09 1077.39 0.70 Q1067.88 4.55 1061.27 13.03 Q1054.71 21.52 1054.71 35.58 Z M1085.31 36.33 Q1085.31 27.09 1090.94 20.11 Q1096.61 13.17 1106.27 13.17 Q1118.46 13.17 1126.99 17.25 Q1135.56 21.38 1139.97 25.78 L1139.97 77.34 Q1124.13 75.00 1111.80 71.25 Q1099.52 67.55 1092.39 59.53 Q1085.31 51.56 1085.31 36.33 Z M1202.36 0.00 Q1200.02 0.00 1198.47 1.83 Q1196.97 3.66 1196.97 6.00 Q1196.97 10.83 1201.80 11.44 Q1207.19 12.00 1213.05 13.97 Q1218.91 15.98 1218.91 20.81 L1219.05 196.12 Q1219.05 205.22 1214.78 208.59 Q1210.56 211.97 1204.99 212.67 Q1199.46 213.42 1195.47 214.45 Q1194.02 215.20 1192.99 216.38 Q1191.96 217.55 1191.96 220.31 Q1191.96 222.09 1192.85 224.44 Q1193.74 226.78 1195.47 226.92 Q1210.14 227.77 1222.71 227.91 Q1235.31 228.09 1241.64 228.23 Q1242.81 228.23 1244.27 227.06 Q1245.72 225.89 1246.00 222.38 L1246.00 25.64 Q1246.00 19.36 1249.00 16.50 Q1252.05 13.64 1256.22 12.75 Q1260.39 11.86 1263.91 11.44 Q1266.96 11.16 1268.03 10.03 Q1269.16 8.95 1269.16 6.47 Q1269.16 3.80 1267.61 1.88 Q1266.11 0.00 1263.44 0.00 L1202.36 0.00 Z M1352.51 -4.27 Q1320.45 -4.27 1304.04 16.69 Q1287.64 37.64 1287.64 73.27 Q1287.64 96.98 1296.78 113.81 Q1305.92 130.69 1321.58 139.59 Q1337.28 148.55 1356.78 148.55 Q1369.34 148.55 1381.15 144.89 Q1392.97 141.23 1399.67 129.94 Q1403.04 124.36 1404.50 119.53 Q1406.00 114.70 1406.00 110.91 Q1406.00 106.50 1404.45 103.41 Q1402.90 100.36 1400.56 98.67 Q1398.22 96.98 1395.59 96.98 Q1391.33 96.98 1388.51 98.06 Q1385.75 99.19 1383.59 104.02 L1371.26 131.39 Q1371.26 131.39 1368.26 132.94 Q1365.26 134.48 1358.98 134.48 Q1341.22 134.48 1330.15 120.42 Q1319.14 106.36 1319.14 71.77 Q1319.14 48.94 1325.65 35.67 Q1332.17 22.41 1341.31 16.69 Q1350.45 10.97 1358.09 10.97 Q1369.20 10.97 1378.44 16.03 Q1387.67 21.09 1392.36 30.47 Q1392.78 31.36 1393.29 32.44 Q1393.81 33.56 1395.12 32.81 L1402.48 29.44 Q1404.08 28.73 1404.08 27.56 Q1404.08 26.95 1403.79 26.34 Q1403.51 25.78 1403.19 25.36 Q1396.76 12.47 1384.01 4.08 Q1371.26 -4.27 1352.51 -4.27 Z" fill="#BD5D3A"/></g></svg>